<svg width="44" height="44" viewBox="0 0 44 44" fill="none" xmlns="http://www.w3.org/2000/svg">
    <path fill-rule="evenodd" clip-rule="evenodd" d="M26.41 26.067c0 .727-.017 1.453.014 2.176.007.154.17.32.294.447.78.807 1.568 1.603 2.352 2.406.11.113.217.232.306.362.173.252.176.517-.03.745-.207.23-.47.299-.752.146a1.371 1.371 0 0 1-.31-.247c-.464-.467-.92-.942-1.383-1.41-.135-.136-.284-.258-.506-.458 0 .342.003.593-.001.843-.007.432-.245.725-.596.743-.327.017-.614-.24-.67-.64-.042-.287-.038-.58-.055-.876-.587.588-1.157 1.163-1.732 1.734-.111.11-.224.227-.357.304a.603.603 0 0 1-.804-.18c-.189-.265-.176-.543.041-.775.459-.49.935-.962 1.404-1.44.419-.425.83-.86 1.261-1.271a.88.88 0 0 0 .29-.717c-.015-.626-.004-1.253-.004-1.912-.987 0-1.933-.002-2.88 0-1.358.003-2.717.005-4.075.017-.55.005-1.022-.164-1.364-.615-.614-.813-.328-1.945.593-2.392.108-.053.22-.097.36-.157v-4.715l1.278-.092v4.68h13.195V12.96H19.116v2.153h-1.31v-2.331c-.188 0-.34.002-.49 0-.493-.008-.813-.265-.81-.646.005-.392.305-.604.836-.595 1.034.018 2.067.044 3.1.05 1.468.011 2.934.007 4.4.008.07 0 .14-.007.25-.013 0-.457-.003-.898 0-1.34.005-.502.255-.799.661-.792.386.007.624.302.63.79.004.432 0 .864 0 1.358h.429l7.502-.001c.512 0 .723.147.728.504.005.386-.302.662-.753.672-.164.003-.329 0-.53 0v3.106c0 2.224.006 4.448-.003 6.671-.001.27.055.411.322.518.628.252.991.852.971 1.5a1.534 1.534 0 0 1-1.027 1.422c-.153.057-.327.07-.492.07-2.284-.003-4.568-.012-6.852-.02-.07.001-.141.012-.267.024zm-.651-1.88h-3.677c-1.31.001-2.62.004-3.93.003-.206 0-.439.026-.395.286.022.13.239.248.39.324.098.05.236.014.356.014l14.708-.004c.096 0 .212.026.283-.018.105-.067.246-.187.245-.282-.001-.105-.128-.257-.234-.3-.137-.054-.308-.023-.464-.023h-7.282z" fill="#fff"/>
    <path fill-rule="evenodd" clip-rule="evenodd" d="M25.817 21.458c-.437 0-.518-.065-.503-.503.014-.401-.209-.562-.523-.691-.294-.122-.54-.14-.783.121-.302.324-.41.318-.682.045-.282-.283-.297-.456.002-.74.274-.26.237-.514.114-.83-.126-.323-.293-.514-.653-.515-.459-.002-.66-.29-.48-.72.051-.123.274-.24.417-.238.367.003.569-.148.708-.493s.174-.624-.137-.888c-.259-.218-.23-.45.004-.692.231-.24.456-.284.671-.016.256.319.532.294.866.15.33-.141.51-.343.473-.726-.033-.33.128-.464.448-.465.311-.002.528.074.504.447-.023.365.116.593.46.739.35.147.63.173.894-.159.225-.283.45-.18.67.044.221.226.263.437.01.656-.264.228-.32.48-.19.82.143.373.328.62.759.573.343-.037.423.176.425.484.002.31-.08.514-.423.488-.378-.03-.598.146-.736.506-.134.348-.145.634.165.89.28.232.184.46-.035.685-.218.223-.437.276-.643.016-.25-.315-.527-.309-.867-.172-.351.142-.519.365-.49.756.025.346-.17.459-.445.428zm1.59-3.571c.003-.959-.7-1.694-1.625-1.698-.887-.005-1.63.759-1.627 1.67.003.935.71 1.664 1.618 1.67.923.005 1.632-.707 1.635-1.642zM11.958 13.475c.004-1.038.8-1.847 1.81-1.84.998.008 1.81.85 1.797 1.864-.012 1.027-.837 1.86-1.822 1.843-1.02-.018-1.789-.823-1.785-1.867zM12.003 16.001s2.58-.241 3.57-.247c1.731-.009 3.462-.01 5.192.001.522.004.886.335.896.769.011.488-.33.808-.896.848-1.426.1-2.851.204-4.277.307-.034.003-.067.02-.137.04-.067.725-.138 1.459-.203 2.194-.202 2.26.05 4.514.117 6.77.047 1.593.129 3.183.18 4.775.02.555-.285.927-.738.965-.532.044-.851-.236-.938-.837-.29-2.023-.578-4.047-.869-6.071a1.32 1.32 0 0 0-.133-.436c-.096.688-.195 1.376-.29 2.065-.2 1.452-.397 2.904-.596 4.355-.01.073-.034.144-.052.216-.125.504-.466.76-.946.706-.43-.047-.737-.408-.72-.906.047-1.469.108-2.937.17-4.405.08-1.9.168-3.798.248-5.698a.719.719 0 0 0-.103-.399c-.248 1.092-.493 2.184-.744 3.276-.098.423-.348.682-.678.72-.334.04-.682-.135-.783-.459a1.6 1.6 0 0 1-.04-.689c.322-2.118.658-4.233.988-6.35.101-.646.438-1.079 1.061-1.26.334-.096.7-.327.99-.251" fill="#fff"/>
</svg>
